<?xml version="1.0" encoding="UTF-8" standalone="no"?>
<!-- Created with Inkscape (http://www.inkscape.org/) -->

<svg
   width="297mm"
   height="297mm"
   viewBox="0 0 297 297"
   version="1.1"
   id="svg1"
   inkscape:version="1.4.2 (f4327f4, 2025-05-13)"
   sodipodi:docname="fourtops_topology.svg"
   xmlns:inkscape="http://www.inkscape.org/namespaces/inkscape"
   xmlns:sodipodi="http://sodipodi.sourceforge.net/DTD/sodipodi-0.dtd"
   xmlns:xlink="http://www.w3.org/1999/xlink"
   xmlns="http://www.w3.org/2000/svg"
   xmlns:svg="http://www.w3.org/2000/svg">
  <sodipodi:namedview
     id="namedview1"
     pagecolor="#ffffff"
     bordercolor="#000000"
     borderopacity="0.25"
     inkscape:showpageshadow="2"
     inkscape:pageopacity="0.0"
     inkscape:pagecheckerboard="0"
     inkscape:deskcolor="#d1d1d1"
     inkscape:document-units="mm"
     inkscape:zoom="1.3344978"
     inkscape:cx="526.78995"
     inkscape:cy="527.53929"
     inkscape:window-width="3072"
     inkscape:window-height="1796"
     inkscape:window-x="-12"
     inkscape:window-y="-12"
     inkscape:window-maximized="1"
     inkscape:current-layer="layer1" />
  <defs
     id="defs1">
    <rect
       x="218.80891"
       y="692.39532"
       width="117.64726"
       height="56.950264"
       id="rect32" />
    <rect
       x="211.31544"
       y="725.36652"
       width="161.85864"
       height="261.52161"
       id="rect31" />
    <rect
       x="243.53731"
       y="909.70557"
       width="47.208771"
       height="134.13286"
       id="rect30" />
    <rect
       x="248.03339"
       y="896.96667"
       width="37.467278"
       height="98.91362"
       id="rect29" />
    <pattern
       inkscape:collect="always"
       xlink:href="#Grid"
       id="pattern29"
       patternTransform="matrix(0.01,0,0,0.01,4.7967286,-295.01293)"
       x="0"
       y="0"
       preserveAspectRatio="none" />
    <pattern
       patternUnits="userSpaceOnUse"
       width="100"
       height="100"
       id="Grid"
       inkscape:stockid="Grid"
       patternTransform="scale(0.3,0.3)"
       inkscape:collect="always"
       style="fill:#4d4d4d"
       inkscape:isstock="true"
       inkscape:label="网格">
      <g
   id="g63950">
        <rect
   style="fill-opacity:0.5;stroke:none;stroke-width:1;stroke-dasharray:none"
   id="rect62492"
   width="50"
   height="100"
   x="50"
   y="0" />

        <rect
   style="fill-opacity:0.5;stroke:none;stroke-width:1;stroke-dasharray:none"
   id="rect63583"
   width="50"
   height="100"
   x="-100"
   y="0"
   transform="rotate(-90)" />

      </g>

    </pattern>
    <clipPath
       clipPathUnits="userSpaceOnUse"
       id="clipPath52">
      <path
         id="path52"
         style="stroke-width:0.1;stroke-linecap:square;paint-order:markers fill stroke;stop-color:#000000"
         d="m -880.82767,-187.29769 h 1640.84 v 73.28155 h -1640.84 z" />
    </clipPath>
    <inkscape:path-effect
       effect="fillet_chamfer"
       id="path-effect12"
       is_visible="true"
       lpeversion="1"
       nodesatellites_param="F,0,0,1,0,9.2787632,0,1 @ F,0,0,1,0,24.287636,0,1 @ F,0,0,1,0,34.13798,0,1"
       radius="0"
       unit="px"
       method="auto"
       mode="F"
       chamfer_steps="1"
       flexible="false"
       use_knot_distance="true"
       apply_no_radius="true"
       apply_with_radius="true"
       only_selected="false"
       hide_knots="false" />
    <inkscape:path-effect
       effect="fillet_chamfer"
       id="path-effect11"
       is_visible="true"
       lpeversion="1"
       nodesatellites_param="F,0,0,1,0,6.8460787,0,1 @ F,0,0,1,0,103.78546,0,1 @ F,0,0,1,0,69.814987,0,1"
       radius="0"
       unit="px"
       method="auto"
       mode="F"
       chamfer_steps="1"
       flexible="false"
       use_knot_distance="true"
       apply_no_radius="true"
       apply_with_radius="true"
       only_selected="false"
       hide_knots="false" />
    <inkscape:path-effect
       effect="fillet_chamfer"
       id="path-effect10"
       is_visible="true"
       lpeversion="1"
       nodesatellites_param="F,0,0,1,0,0,0,1 @ F,0,0,1,0,0,0,1 @ F,0,0,1,0,0,0,1"
       radius="0"
       unit="px"
       method="auto"
       mode="F"
       chamfer_steps="1"
       flexible="false"
       use_knot_distance="true"
       apply_no_radius="true"
       apply_with_radius="true"
       only_selected="false"
       hide_knots="false" />
    <inkscape:path-effect
       effect="fillet_chamfer"
       id="path-effect8"
       is_visible="true"
       lpeversion="1"
       nodesatellites_param="F,0,0,1,0,0,0,1 @ F,0,0,1,0,0,0,1 @ F,0,0,1,0,0,0,1 @ F,0,0,1,0,0,0,1 @ F,0,0,1,0,0,0,1 @ F,0,0,1,0,0,0,1 @ F,0,0,1,0,0,0,1 @ F,0,0,1,0,16.205898,0,1 @ F,0,0,1,0,0,0,1 @ F,0,0,1,0,0,0,1 @ F,0,0,1,0,0,0,1 @ F,0,0,1,0,0,0,1"
       radius="0"
       unit="px"
       method="auto"
       mode="F"
       chamfer_steps="1"
       flexible="false"
       use_knot_distance="true"
       apply_no_radius="true"
       apply_with_radius="true"
       only_selected="false"
       hide_knots="false" />
    <inkscape:path-effect
       effect="fillet_chamfer"
       id="path-effect7"
       is_visible="true"
       lpeversion="1"
       nodesatellites_param="F,0,0,1,0,101.49903,0,1 @ F,0,1,1,0,14.25029,0,1 @ F,0,0,1,0,129.12659,0,1 @ F,0,0,1,0,30.194366,0,1 @ F,0,0,1,0,14.25029,0,1 @ F,0,0,1,0,0,0,1"
       radius="0"
       unit="px"
       method="auto"
       mode="F"
       chamfer_steps="1"
       flexible="false"
       use_knot_distance="true"
       apply_no_radius="true"
       apply_with_radius="true"
       only_selected="false"
       hide_knots="false" />
    <pattern
       inkscape:collect="always"
       xlink:href="#Grid-8"
       id="pattern29-2"
       patternTransform="matrix(0.01,0,0,0.01,-2.5203384,-210.0564)"
       x="0"
       y="0"
       preserveAspectRatio="none" />
    <pattern
       patternUnits="userSpaceOnUse"
       width="100"
       height="100"
       id="Grid-8"
       inkscape:stockid="Grid"
       patternTransform="scale(0.3,0.3)"
       inkscape:collect="always"
       style="fill:#4d4d4d"
       inkscape:isstock="true"
       inkscape:label="网格">
      <g
   id="g63950-6">
        <rect
   style="fill-opacity:0.5;stroke:none;stroke-width:1;stroke-dasharray:none"
   id="rect62492-0"
   width="50"
   height="100"
   x="50"
   y="0" />

        <rect
   style="fill-opacity:0.5;stroke:none;stroke-width:1;stroke-dasharray:none"
   id="rect63583-2"
   width="50"
   height="100"
   x="-100"
   y="0"
   transform="rotate(-90)" />

      </g>

    </pattern>
  </defs>
  <g
     inkscape:label="图层 1"
     inkscape:groupmode="layer"
     id="layer1">
    <path
       id="path11"
       style="fill:#d62728;fill-opacity:0.537736;stroke:#000000;stroke-width:1.265"
       inkscape:transform-center-x="11.772692"
       inkscape:transform-center-y="-1.6164152"
       d="m 125.2703,55.987193 18.36729,54.956297 a 11.612106,11.612106 135.9667 0 1 -15.06358,14.56365 L 45.613655,94.631585 a 11.927053,11.927053 91.155599 0 1 0.45416,-22.514683 L 113.50962,50.070025 a 9.3401469,9.3401469 26.708422 0 1 11.76068,5.917168 z"
       sodipodi:nodetypes="cccc"
       inkscape:path-effect="#path-effect12"
       inkscape:original-d="M 122.3291,47.186919 151.33632,133.97865 13.619625,82.724288 Z"
       transform="rotate(90,148.77599,136.52199)" />
    <path
       id="path10"
       style="fill:#d62728;fill-opacity:0.537736;stroke:#000000;stroke-width:1.265"
       inkscape:transform-center-x="1.1757893"
       inkscape:transform-center-y="-9.1653998"
       d="M 4.4966092,201.14967 28.245392,281.3681 a 10.914514,10.914514 169.51194 0 0 21.346611,-3.95176 L 38.384687,134.52502 A 10.85048,10.85048 4.3494315 0 0 17.002918,132.89876 L 4.1145879,187.91957 a 25.842876,25.842876 88.346034 0 0 0.3820213,13.2301 z"
       sodipodi:nodetypes="cccc"
       inkscape:path-effect="#path-effect11"
       inkscape:original-d="M 2.5531959,194.58522 57.707227,380.88404 32.925692,64.923781 Z"
       transform="rotate(90,145.33689,150.36745)" />
    <path
       style="fill:#1f77b4;fill-opacity:1;stroke-width:0.175016"
       id="path5"
       sodipodi:type="arc"
       sodipodi:cx="32.156849"
       sodipodi:cy="-156.79266"
       sodipodi:rx="8"
       sodipodi:ry="8"
       sodipodi:start="0"
       sodipodi:end="6.2831432"
       sodipodi:arc-type="slice"
       d="m 40.156849,-156.79266 a 8,8 0 0 1 -7.999916,8 8,8 0 0 1 -8.000084,-7.99984 8,8 0 0 1 7.999747,-8.00016 8,8 0 0 1 8.000253,7.99966 l -8,3.4e-4 z"
       transform="rotate(90)" />
    <path
       style="fill:#1f77b4;fill-opacity:1;stroke-width:0.175016"
       id="path5-8"
       sodipodi:type="arc"
       sodipodi:cx="37.998478"
       sodipodi:cy="-201.42191"
       sodipodi:rx="8"
       sodipodi:ry="8"
       sodipodi:start="0"
       sodipodi:end="6.2831432"
       sodipodi:arc-type="slice"
       d="m 45.998478,-201.42191 a 8,8 0 0 1 -7.999916,8 8,8 0 0 1 -8.000084,-7.99983 8,8 0 0 1 7.999747,-8.00017 8,8 0 0 1 8.000253,7.99967 l -8,3.3e-4 z"
       transform="rotate(90)" />
    <path
       style="fill:#1f77b4;fill-opacity:1;stroke-width:0.175016"
       id="path5-8-1"
       sodipodi:type="arc"
       sodipodi:cx="20.58515"
       sodipodi:cy="-102.6003"
       sodipodi:rx="8"
       sodipodi:ry="8"
       sodipodi:start="0"
       sodipodi:end="6.2831432"
       sodipodi:arc-type="slice"
       d="m 28.58515,-102.6003 a 8,8 0 0 1 -7.999916,7.999996 8,8 0 0 1 -8.000084,-7.999836 8,8 0 0 1 7.999747,-8.00016 8,8 0 0 1 8.000253,7.99966 l -8,3.4e-4 z"
       transform="rotate(90)" />
    <path
       style="fill:#1f77b4;fill-opacity:1;stroke-width:0.175016"
       id="path5-8-1-2"
       sodipodi:type="arc"
       sodipodi:cx="119.58616"
       sodipodi:cy="-170.8414"
       sodipodi:rx="8"
       sodipodi:ry="8"
       sodipodi:start="0"
       sodipodi:end="6.2831432"
       sodipodi:arc-type="slice"
       d="m 127.58616,-170.8414 a 8,8 0 0 1 -7.99992,8 8,8 0 0 1 -8.00008,-7.99983 8,8 0 0 1 7.99975,-8.00017 8,8 0 0 1 8.00025,7.99966 l -8,3.4e-4 z"
       transform="rotate(90)" />
    <path
       style="fill:#d62728;fill-opacity:1;stroke-width:0.175016"
       id="path5-8-1-23"
       sodipodi:type="arc"
       sodipodi:cx="95.632072"
       sodipodi:cy="-59.755791"
       sodipodi:rx="8"
       sodipodi:ry="8"
       sodipodi:start="0"
       sodipodi:end="6.2831432"
       sodipodi:arc-type="slice"
       d="m 103.63207,-59.755791 a 8,8 0 0 1 -7.999913,8 8,8 0 0 1 -8.000085,-7.999831 8,8 0 0 1 7.999748,-8.000169 8,8 0 0 1 8.00025,7.999663 l -7.999998,3.37e-4 z"
       transform="rotate(90)" />
    <path
       style="fill:#1f77b4;fill-opacity:1;stroke-width:0.175016"
       id="path5-8-1-3"
       sodipodi:type="arc"
       sodipodi:cx="122.78255"
       sodipodi:cy="-19.519184"
       sodipodi:rx="8"
       sodipodi:ry="8"
       sodipodi:start="0"
       sodipodi:end="6.2831432"
       sodipodi:arc-type="slice"
       d="m 130.78255,-19.519184 a 8,8 0 0 1 -7.99992,8 8,8 0 0 1 -8.00008,-7.999832 8,8 0 0 1 7.99974,-8.000168 8,8 0 0 1 8.00026,7.999663 l -8,3.37e-4 z"
       transform="rotate(90)" />
    <path
       style="fill:#1f77b4;fill-opacity:1;stroke-width:0.175016"
       id="path5-8-1-87"
       sodipodi:type="arc"
       sodipodi:cx="102.44982"
       sodipodi:cy="-222.30078"
       sodipodi:rx="8"
       sodipodi:ry="8"
       sodipodi:start="0"
       sodipodi:end="6.2831432"
       sodipodi:arc-type="slice"
       d="m 110.44982,-222.30078 a 8,8 0 0 1 -7.99991,8 8,8 0 0 1 -8.000089,-7.99983 8,8 0 0 1 7.999749,-8.00017 8,8 0 0 1 8.00025,7.99966 l -8,3.4e-4 z"
       transform="rotate(90)" />
    <path
       style="fill:#d62728;fill-opacity:1;stroke-width:0.175016"
       id="path5-8-1-8"
       sodipodi:type="arc"
       sodipodi:cx="142.1109"
       sodipodi:cy="-103.98454"
       sodipodi:rx="8"
       sodipodi:ry="8"
       sodipodi:start="0"
       sodipodi:end="6.2831432"
       sodipodi:arc-type="slice"
       d="m 150.1109,-103.98454 a 8,8 0 0 1 -7.99991,7.999997 8,8 0 0 1 -8.00009,-7.999827 8,8 0 0 1 7.99975,-8.00017 8,8 0 0 1 8.00025,7.99966 l -8,3.4e-4 z"
       transform="rotate(90)" />
    <path
       style="fill:url(#pattern29);fill-opacity:1;stroke-width:0.175016"
       id="path5-8-1-8-9"
       sodipodi:type="arc"
       sodipodi:cx="156.12555"
       sodipodi:cy="-140.40533"
       sodipodi:rx="8"
       sodipodi:ry="8"
       sodipodi:start="0"
       sodipodi:end="6.2831432"
       sodipodi:arc-type="slice"
       d="m 164.12555,-140.40533 a 8,8 0 0 1 -7.99992,8 8,8 0 0 1 -8.00008,-7.99984 8,8 0 0 1 7.99975,-8.00016 8,8 0 0 1 8.00025,7.99966 l -8,3.4e-4 z"
       transform="rotate(90)" />
    <path
       style="fill:url(#pattern29-2);fill-opacity:1;stroke-width:0.175016"
       id="path5-8-1-8-9-6"
       sodipodi:type="arc"
       sodipodi:cx="148.80847"
       sodipodi:cy="-55.448807"
       sodipodi:rx="8"
       sodipodi:ry="8"
       sodipodi:start="0"
       sodipodi:end="6.2831432"
       sodipodi:arc-type="slice"
       d="m 156.80847,-55.448807 a 8,8 0 0 1 -7.99991,8 8,8 0 0 1 -8.00009,-7.999831 8,8 0 0 1 7.99975,-8.000169 8,8 0 0 1 8.00025,7.999663 l -8,3.37e-4 z"
       transform="rotate(90)" />
    <path
       style="fill:#1f77b4;fill-opacity:1;stroke-width:0.175016"
       id="path5-8-1-89"
       sodipodi:type="arc"
       sodipodi:cx="90.130379"
       sodipodi:cy="-126.78909"
       sodipodi:rx="8"
       sodipodi:ry="8"
       sodipodi:start="0"
       sodipodi:end="6.2831432"
       sodipodi:arc-type="slice"
       d="m 98.130379,-126.78909 a 8,8 0 0 1 -7.999916,8 8,8 0 0 1 -8.000084,-7.99983 8,8 0 0 1 7.999747,-8.00017 8,8 0 0 1 8.000253,7.99966 l -8,3.4e-4 z"
       transform="rotate(90)" />
    <path
       style="fill:#1f77b4;fill-opacity:1;stroke-width:0.175016"
       id="path5-8-1-4"
       sodipodi:type="arc"
       sodipodi:cx="43.591419"
       sodipodi:cy="-18.471188"
       sodipodi:rx="8"
       sodipodi:ry="8"
       sodipodi:start="0"
       sodipodi:end="6.2831432"
       sodipodi:arc-type="slice"
       d="m 51.591419,-18.471188 a 8,8 0 0 1 -7.999916,8 8,8 0 0 1 -8.000084,-7.999831 8,8 0 0 1 7.999748,-8.000169 8,8 0 0 1 8.000252,7.999664 l -8,3.36e-4 z"
       transform="rotate(90)" />
    <text
       xml:space="preserve"
       transform="matrix(0.26458333,0,0,0.26458333,-56.307076,2.5774365)"
       id="text31"
       style="font-style:normal;font-variant:normal;font-weight:normal;font-stretch:normal;font-size:32px;font-family:'Bell MT';-inkscape-font-specification:'Bell MT';text-align:center;letter-spacing:0.35px;word-spacing:0.1px;writing-mode:lr-tb;direction:ltr;white-space:pre;shape-inside:url(#rect32);fill:#ffffff;fill-opacity:1;stroke:#000000;stroke-width:4.7811;stroke-dasharray:none;stroke-opacity:1"
       x="23.034374"
       y="0" />
  </g>
</svg>
